<mxfile host="app.diagrams.net" modified="2020-11-08T10:29:52.217Z" agent="5.0 (Macintosh; Intel Mac OS X 10_15_3) AppleWebKit/537.36 (KHTML, like Gecko) Chrome/86.0.4240.183 Safari/537.36" etag="MjhhaVME3pr_5tiqnzBt" version="13.9.2" type="github">
  <diagram id="0Wzph2bKtdlOJ9eP10Uj" name="Page-1">
    <mxGraphModel dx="1087" dy="723" grid="1" gridSize="10" guides="1" tooltips="1" connect="1" arrows="1" fold="1" page="1" pageScale="1" pageWidth="827" pageHeight="1169" math="0" shadow="0">
      <root>
        <mxCell id="0" />
        <mxCell id="1" parent="0" />
        <mxCell id="LFt05iVWnmAkS2H069Ms-1" value="营销产品" style="rounded=0;whiteSpace=wrap;html=1;fillColor=#fff2cc;strokeColor=#d6b656;fontSize=20;fontStyle=1;align=left;spacingLeft=5;" vertex="1" parent="1">
          <mxGeometry x="10" y="10" width="1010" height="70" as="geometry" />
        </mxCell>
        <mxCell id="LFt05iVWnmAkS2H069Ms-2" value="商户自营销" style="rounded=1;whiteSpace=wrap;html=1;fontSize=16;align=center;fillColor=#1ba1e2;strokeColor=#006EAF;fontColor=#ffffff;" vertex="1" parent="1">
          <mxGeometry x="128" y="22.5" width="100" height="45" as="geometry" />
        </mxCell>
        <mxCell id="LFt05iVWnmAkS2H069Ms-3" value="BD代运营" style="rounded=1;whiteSpace=wrap;html=1;fontSize=16;align=center;fillColor=#1ba1e2;strokeColor=#006EAF;fontColor=#ffffff;" vertex="1" parent="1">
          <mxGeometry x="248" y="22.5" width="100" height="45" as="geometry" />
        </mxCell>
        <mxCell id="LFt05iVWnmAkS2H069Ms-4" value="……" style="rounded=1;whiteSpace=wrap;html=1;fontSize=16;align=center;fillColor=#1ba1e2;strokeColor=#006EAF;fontColor=#ffffff;" vertex="1" parent="1">
          <mxGeometry x="610" y="22.5" width="100" height="45" as="geometry" />
        </mxCell>
        <mxCell id="LFt05iVWnmAkS2H069Ms-5" value="招商" style="rounded=1;whiteSpace=wrap;html=1;fontSize=16;align=center;fillColor=#1ba1e2;strokeColor=#006EAF;fontColor=#ffffff;" vertex="1" parent="1">
          <mxGeometry x="488" y="22.5" width="100" height="45" as="geometry" />
        </mxCell>
        <mxCell id="LFt05iVWnmAkS2H069Ms-6" value="代理商运营" style="rounded=1;whiteSpace=wrap;html=1;fontSize=16;align=center;fillColor=#1ba1e2;strokeColor=#006EAF;fontColor=#ffffff;" vertex="1" parent="1">
          <mxGeometry x="367" y="22.5" width="100" height="45" as="geometry" />
        </mxCell>
        <mxCell id="LFt05iVWnmAkS2H069Ms-7" value="营销运营" style="rounded=0;whiteSpace=wrap;html=1;fontSize=20;align=left;fillColor=#d5e8d4;strokeColor=#82b366;fontStyle=1;verticalAlign=top;spacingLeft=5;" vertex="1" parent="1">
          <mxGeometry x="10" y="86" width="780" height="230" as="geometry" />
        </mxCell>
        <mxCell id="LFt05iVWnmAkS2H069Ms-8" value="营销基础能力" style="rounded=0;whiteSpace=wrap;html=1;fontSize=20;align=left;fillColor=#dae8fc;strokeColor=#6c8ebf;fontStyle=1;verticalAlign=top;spacingLeft=5;" vertex="1" parent="1">
          <mxGeometry x="10" y="324" width="780" height="380" as="geometry" />
        </mxCell>
        <mxCell id="LFt05iVWnmAkS2H069Ms-10" value="外部域" style="rounded=0;whiteSpace=wrap;html=1;fontSize=20;align=center;verticalAlign=top;fontStyle=1" vertex="1" parent="1">
          <mxGeometry x="800" y="90" width="220" height="614" as="geometry" />
        </mxCell>
        <mxCell id="LFt05iVWnmAkS2H069Ms-11" value="智能推荐" style="rounded=0;whiteSpace=wrap;html=1;fontSize=18;align=center;verticalAlign=top;dashed=1;" vertex="1" parent="1">
          <mxGeometry x="27" y="130" width="140" height="170" as="geometry" />
        </mxCell>
        <mxCell id="LFt05iVWnmAkS2H069Ms-12" value="圈选商户" style="rounded=1;whiteSpace=wrap;html=1;fontSize=15;align=center;fillColor=#f0a30a;strokeColor=#BD7000;fontColor=#ffffff;" vertex="1" parent="1">
          <mxGeometry x="49.5" y="170" width="95" height="30" as="geometry" />
        </mxCell>
        <mxCell id="LFt05iVWnmAkS2H069Ms-13" value="配置策略" style="rounded=1;whiteSpace=wrap;html=1;fontSize=15;align=center;fillColor=#f0a30a;strokeColor=#BD7000;fontColor=#ffffff;" vertex="1" parent="1">
          <mxGeometry x="49.5" y="210" width="95" height="30" as="geometry" />
        </mxCell>
        <mxCell id="LFt05iVWnmAkS2H069Ms-14" value="活动方案" style="rounded=1;whiteSpace=wrap;html=1;fontSize=15;align=center;fillColor=#f0a30a;strokeColor=#BD7000;fontColor=#ffffff;" vertex="1" parent="1">
          <mxGeometry x="49.5" y="250" width="95" height="30" as="geometry" />
        </mxCell>
        <mxCell id="LFt05iVWnmAkS2H069Ms-15" value="活动智能管理" style="rounded=0;whiteSpace=wrap;html=1;fontSize=18;align=center;verticalAlign=top;dashed=1;" vertex="1" parent="1">
          <mxGeometry x="190" y="130" width="253" height="170" as="geometry" />
        </mxCell>
        <mxCell id="LFt05iVWnmAkS2H069Ms-16" value="圈选商户" style="rounded=1;whiteSpace=wrap;html=1;fontSize=15;align=center;fillColor=#f0a30a;strokeColor=#BD7000;fontColor=#ffffff;" vertex="1" parent="1">
          <mxGeometry x="212.5" y="170" width="95" height="30" as="geometry" />
        </mxCell>
        <mxCell id="LFt05iVWnmAkS2H069Ms-17" value="行为配置" style="rounded=1;whiteSpace=wrap;html=1;fontSize=15;align=center;fillColor=#f0a30a;strokeColor=#BD7000;fontColor=#ffffff;" vertex="1" parent="1">
          <mxGeometry x="212.5" y="210" width="95" height="30" as="geometry" />
        </mxCell>
        <mxCell id="LFt05iVWnmAkS2H069Ms-18" value="动作执行" style="rounded=1;whiteSpace=wrap;html=1;fontSize=15;align=center;fillColor=#f0a30a;strokeColor=#BD7000;fontColor=#ffffff;" vertex="1" parent="1">
          <mxGeometry x="212.5" y="250" width="95" height="30" as="geometry" />
        </mxCell>
        <mxCell id="LFt05iVWnmAkS2H069Ms-19" value="玩法配置" style="rounded=0;whiteSpace=wrap;html=1;fontSize=18;align=center;verticalAlign=top;dashed=1;" vertex="1" parent="1">
          <mxGeometry x="470" y="130" width="140" height="170" as="geometry" />
        </mxCell>
        <mxCell id="LFt05iVWnmAkS2H069Ms-20" value="诊断方案" style="rounded=1;whiteSpace=wrap;html=1;fontSize=15;align=center;fillColor=#f0a30a;strokeColor=#BD7000;fontColor=#ffffff;" vertex="1" parent="1">
          <mxGeometry x="490" y="170" width="95" height="30" as="geometry" />
        </mxCell>
        <mxCell id="LFt05iVWnmAkS2H069Ms-21" value="问题" style="rounded=1;whiteSpace=wrap;html=1;fontSize=15;align=center;fillColor=#f0a30a;strokeColor=#BD7000;fontColor=#ffffff;" vertex="1" parent="1">
          <mxGeometry x="490" y="210" width="95" height="30" as="geometry" />
        </mxCell>
        <mxCell id="LFt05iVWnmAkS2H069Ms-22" value="攻略" style="rounded=1;whiteSpace=wrap;html=1;fontSize=15;align=center;fillColor=#f0a30a;strokeColor=#BD7000;fontColor=#ffffff;" vertex="1" parent="1">
          <mxGeometry x="490" y="250" width="95" height="30" as="geometry" />
        </mxCell>
        <mxCell id="LFt05iVWnmAkS2H069Ms-27" value="数据看板" style="rounded=0;whiteSpace=wrap;html=1;fontSize=18;align=center;verticalAlign=top;dashed=1;" vertex="1" parent="1">
          <mxGeometry x="634" y="130" width="140" height="170" as="geometry" />
        </mxCell>
        <mxCell id="LFt05iVWnmAkS2H069Ms-28" value="工具转化" style="rounded=1;whiteSpace=wrap;html=1;fontSize=15;align=center;fillColor=#f0a30a;strokeColor=#BD7000;fontColor=#ffffff;" vertex="1" parent="1">
          <mxGeometry x="656.5" y="170" width="95" height="30" as="geometry" />
        </mxCell>
        <mxCell id="LFt05iVWnmAkS2H069Ms-29" value="效果复盘" style="rounded=1;whiteSpace=wrap;html=1;fontSize=15;align=center;fillColor=#f0a30a;strokeColor=#BD7000;fontColor=#ffffff;" vertex="1" parent="1">
          <mxGeometry x="656.5" y="210" width="95" height="30" as="geometry" />
        </mxCell>
        <mxCell id="LFt05iVWnmAkS2H069Ms-30" value="圈选能力" style="rounded=0;whiteSpace=wrap;html=1;fontSize=18;align=center;verticalAlign=top;dashed=1;" vertex="1" parent="1">
          <mxGeometry x="25" y="368" width="150" height="296" as="geometry" />
        </mxCell>
        <mxCell id="LFt05iVWnmAkS2H069Ms-31" value="省市区" style="rounded=1;whiteSpace=wrap;html=1;fontSize=15;align=center;fillColor=#fa6800;strokeColor=#C73500;fontColor=#ffffff;" vertex="1" parent="1">
          <mxGeometry x="52.5" y="405.5" width="95" height="35" as="geometry" />
        </mxCell>
        <mxCell id="LFt05iVWnmAkS2H069Ms-32" value="品类" style="rounded=1;whiteSpace=wrap;html=1;fontSize=15;align=center;fillColor=#fa6800;strokeColor=#C73500;fontColor=#ffffff;" vertex="1" parent="1">
          <mxGeometry x="52.5" y="459" width="95" height="35" as="geometry" />
        </mxCell>
        <mxCell id="LFt05iVWnmAkS2H069Ms-33" value="业务线" style="rounded=1;whiteSpace=wrap;html=1;fontSize=15;align=center;fillColor=#fa6800;strokeColor=#C73500;fontColor=#ffffff;" vertex="1" parent="1">
          <mxGeometry x="52.5" y="513.5" width="95" height="35" as="geometry" />
        </mxCell>
        <mxCell id="LFt05iVWnmAkS2H069Ms-34" value="商圈" style="rounded=1;whiteSpace=wrap;html=1;fontSize=15;align=center;fillColor=#fa6800;strokeColor=#C73500;fontColor=#ffffff;" vertex="1" parent="1">
          <mxGeometry x="52.5" y="565.5" width="95" height="35" as="geometry" />
        </mxCell>
        <mxCell id="LFt05iVWnmAkS2H069Ms-35" value="行为库" style="rounded=0;whiteSpace=wrap;html=1;fontSize=18;align=center;verticalAlign=top;dashed=1;" vertex="1" parent="1">
          <mxGeometry x="190" y="368" width="150" height="296" as="geometry" />
        </mxCell>
        <mxCell id="LFt05iVWnmAkS2H069Ms-36" value="上活动" style="rounded=1;whiteSpace=wrap;html=1;fontSize=15;align=center;fillColor=#fa6800;strokeColor=#C73500;fontColor=#ffffff;" vertex="1" parent="1">
          <mxGeometry x="217.5" y="408" width="95" height="35" as="geometry" />
        </mxCell>
        <mxCell id="LFt05iVWnmAkS2H069Ms-37" value="下活动" style="rounded=1;whiteSpace=wrap;html=1;fontSize=15;align=center;fillColor=#fa6800;strokeColor=#C73500;fontColor=#ffffff;" vertex="1" parent="1">
          <mxGeometry x="217.5" y="461.5" width="95" height="35" as="geometry" />
        </mxCell>
        <mxCell id="LFt05iVWnmAkS2H069Ms-38" value="延期" style="rounded=1;whiteSpace=wrap;html=1;fontSize=15;align=center;fillColor=#fa6800;strokeColor=#C73500;fontColor=#ffffff;" vertex="1" parent="1">
          <mxGeometry x="217.5" y="516" width="95" height="35" as="geometry" />
        </mxCell>
        <mxCell id="LFt05iVWnmAkS2H069Ms-39" value="熔断/恢复" style="rounded=1;whiteSpace=wrap;html=1;fontSize=15;align=center;fillColor=#fa6800;strokeColor=#C73500;fontColor=#ffffff;" vertex="1" parent="1">
          <mxGeometry x="217.5" y="568" width="95" height="35" as="geometry" />
        </mxCell>
        <mxCell id="LFt05iVWnmAkS2H069Ms-40" value="店铺指标库" style="rounded=0;whiteSpace=wrap;html=1;fontSize=18;align=center;verticalAlign=top;dashed=1;" vertex="1" parent="1">
          <mxGeometry x="356.5" y="368" width="251.5" height="296" as="geometry" />
        </mxCell>
        <mxCell id="LFt05iVWnmAkS2H069Ms-46" value="P1/P2" style="rounded=1;whiteSpace=wrap;html=1;fontSize=15;align=center;fillColor=#fa6800;strokeColor=#C73500;fontColor=#ffffff;" vertex="1" parent="1">
          <mxGeometry x="379.5" y="568" width="95" height="35" as="geometry" />
        </mxCell>
        <mxCell id="LFt05iVWnmAkS2H069Ms-47" value="无菜品活动" style="rounded=1;whiteSpace=wrap;html=1;fontSize=15;align=center;fillColor=#fa6800;strokeColor=#C73500;fontColor=#ffffff;" vertex="1" parent="1">
          <mxGeometry x="489" y="408" width="95" height="35" as="geometry" />
        </mxCell>
        <mxCell id="LFt05iVWnmAkS2H069Ms-48" value="客单价" style="rounded=1;whiteSpace=wrap;html=1;fontSize=15;align=center;fillColor=#fa6800;strokeColor=#C73500;fontColor=#ffffff;" vertex="1" parent="1">
          <mxGeometry x="489" y="461.5" width="95" height="35" as="geometry" />
        </mxCell>
        <mxCell id="LFt05iVWnmAkS2H069Ms-49" value="无店铺活动" style="rounded=1;whiteSpace=wrap;html=1;fontSize=15;align=center;fillColor=#fa6800;strokeColor=#C73500;fontColor=#ffffff;" vertex="1" parent="1">
          <mxGeometry x="379.5" y="408" width="95" height="35" as="geometry" />
        </mxCell>
        <mxCell id="LFt05iVWnmAkS2H069Ms-54" value="算法" style="rounded=1;whiteSpace=wrap;html=1;fontSize=16;align=center;fillColor=#e3c800;strokeColor=#B09500;fontColor=#ffffff;" vertex="1" parent="1">
          <mxGeometry x="840" y="130" width="140" height="45" as="geometry" />
        </mxCell>
        <mxCell id="LFt05iVWnmAkS2H069Ms-55" value="数据（DIC）" style="rounded=1;whiteSpace=wrap;html=1;fontSize=16;align=center;fillColor=#e3c800;strokeColor=#B09500;fontColor=#ffffff;" vertex="1" parent="1">
          <mxGeometry x="840" y="186" width="140" height="45" as="geometry" />
        </mxCell>
        <mxCell id="LFt05iVWnmAkS2H069Ms-56" value="基础" style="rounded=1;whiteSpace=wrap;html=1;fontSize=16;align=center;fillColor=#e3c800;strokeColor=#B09500;fontColor=#ffffff;" vertex="1" parent="1">
          <mxGeometry x="840" y="240.5" width="140" height="45" as="geometry" />
        </mxCell>
        <mxCell id="LFt05iVWnmAkS2H069Ms-57" value="商品" style="rounded=1;whiteSpace=wrap;html=1;fontSize=16;align=center;fillColor=#e3c800;strokeColor=#B09500;fontColor=#ffffff;" vertex="1" parent="1">
          <mxGeometry x="840" y="296" width="140" height="45" as="geometry" />
        </mxCell>
        <mxCell id="LFt05iVWnmAkS2H069Ms-58" value="店铺" style="rounded=1;whiteSpace=wrap;html=1;fontSize=16;align=center;fillColor=#e3c800;strokeColor=#B09500;fontColor=#ffffff;" vertex="1" parent="1">
          <mxGeometry x="840" y="352" width="140" height="45" as="geometry" />
        </mxCell>
        <mxCell id="LFt05iVWnmAkS2H069Ms-59" value="风控" style="rounded=1;whiteSpace=wrap;html=1;fontSize=16;align=center;fillColor=#e3c800;strokeColor=#B09500;fontColor=#ffffff;" vertex="1" parent="1">
          <mxGeometry x="840" y="465.5" width="140" height="45" as="geometry" />
        </mxCell>
        <mxCell id="LFt05iVWnmAkS2H069Ms-60" value="金效" style="rounded=1;whiteSpace=wrap;html=1;fontSize=16;align=center;fillColor=#e3c800;strokeColor=#B09500;fontColor=#ffffff;" vertex="1" parent="1">
          <mxGeometry x="840" y="523.5" width="140" height="45" as="geometry" />
        </mxCell>
        <mxCell id="LFt05iVWnmAkS2H069Ms-61" value="营销中台" style="rounded=1;whiteSpace=wrap;html=1;fontSize=16;align=center;fillColor=#e3c800;strokeColor=#B09500;fontColor=#ffffff;" vertex="1" parent="1">
          <mxGeometry x="840" y="579.5" width="140" height="45" as="geometry" />
        </mxCell>
        <mxCell id="LFt05iVWnmAkS2H069Ms-62" value="配送" style="rounded=1;whiteSpace=wrap;html=1;fontSize=16;align=center;fillColor=#e3c800;strokeColor=#B09500;fontColor=#ffffff;" vertex="1" parent="1">
          <mxGeometry x="840" y="634" width="140" height="45" as="geometry" />
        </mxCell>
        <mxCell id="LFt05iVWnmAkS2H069Ms-63" value="活动即将过期" style="rounded=1;whiteSpace=wrap;html=1;fontSize=15;align=center;fillColor=#fa6800;strokeColor=#C73500;fontColor=#ffffff;" vertex="1" parent="1">
          <mxGeometry x="379.5" y="461.5" width="95" height="35" as="geometry" />
        </mxCell>
        <mxCell id="LFt05iVWnmAkS2H069Ms-64" value="活动力度小" style="rounded=1;whiteSpace=wrap;html=1;fontSize=15;align=center;fillColor=#fa6800;strokeColor=#C73500;fontColor=#ffffff;" vertex="1" parent="1">
          <mxGeometry x="379.5" y="516" width="95" height="35" as="geometry" />
        </mxCell>
        <mxCell id="LFt05iVWnmAkS2H069Ms-65" value="单量较低" style="rounded=1;whiteSpace=wrap;html=1;fontSize=15;align=center;fillColor=#fa6800;strokeColor=#C73500;fontColor=#ffffff;" vertex="1" parent="1">
          <mxGeometry x="379.5" y="618" width="95" height="35" as="geometry" />
        </mxCell>
        <mxCell id="LFt05iVWnmAkS2H069Ms-67" value="审批" style="rounded=1;whiteSpace=wrap;html=1;fontSize=15;align=center;fillColor=#fa6800;strokeColor=#C73500;fontColor=#ffffff;" vertex="1" parent="1">
          <mxGeometry x="217.5" y="618" width="95" height="35" as="geometry" />
        </mxCell>
        <mxCell id="LFt05iVWnmAkS2H069Ms-68" value="商户标签" style="rounded=1;whiteSpace=wrap;html=1;fontSize=15;align=center;fillColor=#fa6800;strokeColor=#C73500;fontColor=#ffffff;" vertex="1" parent="1">
          <mxGeometry x="52.5" y="615.5" width="95" height="35" as="geometry" />
        </mxCell>
        <mxCell id="LFt05iVWnmAkS2H069Ms-69" value="玩法属性" style="rounded=0;whiteSpace=wrap;html=1;fontSize=18;align=center;verticalAlign=top;dashed=1;" vertex="1" parent="1">
          <mxGeometry x="619" y="368" width="150" height="296" as="geometry" />
        </mxCell>
        <mxCell id="LFt05iVWnmAkS2H069Ms-70" value="渠道" style="rounded=1;whiteSpace=wrap;html=1;fontSize=15;align=center;fillColor=#fa6800;strokeColor=#C73500;fontColor=#ffffff;" vertex="1" parent="1">
          <mxGeometry x="646.5" y="568" width="95" height="35" as="geometry" />
        </mxCell>
        <mxCell id="LFt05iVWnmAkS2H069Ms-73" value="预算" style="rounded=1;whiteSpace=wrap;html=1;fontSize=15;align=center;fillColor=#fa6800;strokeColor=#C73500;fontColor=#ffffff;" vertex="1" parent="1">
          <mxGeometry x="646.5" y="408" width="95" height="35" as="geometry" />
        </mxCell>
        <mxCell id="LFt05iVWnmAkS2H069Ms-74" value="活动周期" style="rounded=1;whiteSpace=wrap;html=1;fontSize=15;align=center;fillColor=#fa6800;strokeColor=#C73500;fontColor=#ffffff;" vertex="1" parent="1">
          <mxGeometry x="646.5" y="461.5" width="95" height="35" as="geometry" />
        </mxCell>
        <mxCell id="LFt05iVWnmAkS2H069Ms-75" value="人群" style="rounded=1;whiteSpace=wrap;html=1;fontSize=15;align=center;fillColor=#fa6800;strokeColor=#C73500;fontColor=#ffffff;" vertex="1" parent="1">
          <mxGeometry x="646.5" y="516" width="95" height="35" as="geometry" />
        </mxCell>
        <mxCell id="LFt05iVWnmAkS2H069Ms-76" value="补贴金额" style="rounded=1;whiteSpace=wrap;html=1;fontSize=15;align=center;fillColor=#fa6800;strokeColor=#C73500;fontColor=#ffffff;" vertex="1" parent="1">
          <mxGeometry x="646.5" y="618" width="95" height="35" as="geometry" />
        </mxCell>
        <mxCell id="LFt05iVWnmAkS2H069Ms-78" value="指标配置" style="rounded=1;whiteSpace=wrap;html=1;fontSize=15;align=center;fillColor=#f0a30a;strokeColor=#BD7000;fontColor=#ffffff;" vertex="1" parent="1">
          <mxGeometry x="332" y="170" width="95" height="30" as="geometry" />
        </mxCell>
        <mxCell id="LFt05iVWnmAkS2H069Ms-79" value="指标判定" style="rounded=1;whiteSpace=wrap;html=1;fontSize=15;align=center;fillColor=#f0a30a;strokeColor=#BD7000;fontColor=#ffffff;" vertex="1" parent="1">
          <mxGeometry x="332" y="210.5" width="95" height="30" as="geometry" />
        </mxCell>
        <mxCell id="LFt05iVWnmAkS2H069Ms-81" value="竞对分析" style="rounded=1;whiteSpace=wrap;html=1;fontSize=15;align=center;fillColor=#f0a30a;strokeColor=#BD7000;fontColor=#ffffff;" vertex="1" parent="1">
          <mxGeometry x="656.5" y="250" width="95" height="30" as="geometry" />
        </mxCell>
        <mxCell id="LFt05iVWnmAkS2H069Ms-82" value="POI" style="rounded=1;whiteSpace=wrap;html=1;fontSize=16;align=center;fillColor=#e3c800;strokeColor=#B09500;fontColor=#ffffff;" vertex="1" parent="1">
          <mxGeometry x="840" y="408" width="140" height="45" as="geometry" />
        </mxCell>
      </root>
    </mxGraphModel>
  </diagram>
</mxfile>
